<svg width="96" height="65" viewBox="0 0 96 65" fill="none" xmlns="http://www.w3.org/2000/svg">
<mask id="path-1-outside-1" maskUnits="userSpaceOnUse" x="0.828125" y="0" width="95" height="65" fill="black">
<rect fill="white" x="0.828125" width="95" height="65"/>
<path d="M13.1719 2.25H16.1875V18.3594C16.1875 20.5365 15.5312 22.2396 14.2188 23.4688C12.9167 24.6979 11.1771 25.3125 9 25.3125C6.73958 25.3125 4.97917 24.7344 3.71875 23.5781C2.45833 22.4219 1.82812 20.8021 1.82812 18.7188H4.82812C4.82812 20.0208 5.18229 21.0365 5.89062 21.7656C6.60938 22.4948 7.64583 22.8594 9 22.8594C10.2396 22.8594 11.2396 22.4688 12 21.6875C12.7708 20.9062 13.1615 19.8125 13.1719 18.4062V2.25Z"/>
<path d="M20.0781 16.3906C20.0781 14.7344 20.401 13.2448 21.0469 11.9219C21.7031 10.599 22.6094 9.57812 23.7656 8.85938C24.9323 8.14062 26.2604 7.78125 27.75 7.78125C30.0521 7.78125 31.9115 8.57812 33.3281 10.1719C34.7552 11.7656 35.4688 13.8854 35.4688 16.5312V16.7344C35.4688 18.3802 35.151 19.8594 34.5156 21.1719C33.8906 22.474 32.9896 23.4896 31.8125 24.2188C30.6458 24.9479 29.3021 25.3125 27.7812 25.3125C25.4896 25.3125 23.6302 24.5156 22.2031 22.9219C20.7865 21.3281 20.0781 19.2188 20.0781 16.5938V16.3906ZM22.9844 16.7344C22.9844 18.6094 23.4167 20.1146 24.2812 21.25C25.1562 22.3854 26.3229 22.9531 27.7812 22.9531C29.25 22.9531 30.4167 22.3802 31.2812 21.2344C32.1458 20.0781 32.5781 18.4635 32.5781 16.3906C32.5781 14.5365 32.1354 13.0365 31.25 11.8906C30.375 10.7344 29.2083 10.1562 27.75 10.1562C26.3229 10.1562 25.1719 10.724 24.2969 11.8594C23.4219 12.9948 22.9844 14.6198 22.9844 16.7344Z"/>
<path d="M43.8125 17.1719L42 19.0625V25H39.1094V1H42V15.5156L43.5469 13.6562L48.8125 8.09375H52.3281L45.75 15.1562L53.0938 25H49.7031L43.8125 17.1719Z"/>
<path d="M58.4531 25H55.5625V8.09375H58.4531V25ZM55.3281 3.60938C55.3281 3.14062 55.4688 2.74479 55.75 2.42188C56.0417 2.09896 56.4688 1.9375 57.0312 1.9375C57.5938 1.9375 58.0208 2.09896 58.3125 2.42188C58.6042 2.74479 58.75 3.14062 58.75 3.60938C58.75 4.07812 58.6042 4.46875 58.3125 4.78125C58.0208 5.09375 57.5938 5.25 57.0312 5.25C56.4688 5.25 56.0417 5.09375 55.75 4.78125C55.4688 4.46875 55.3281 4.07812 55.3281 3.60938Z"/>
<path d="M65.8281 8.09375L65.9219 10.2188C67.2135 8.59375 68.901 7.78125 70.9844 7.78125C74.5573 7.78125 76.3594 9.79688 76.3906 13.8281V25H73.5V13.8125C73.4896 12.5938 73.2083 11.6927 72.6562 11.1094C72.1146 10.526 71.2656 10.2344 70.1094 10.2344C69.1719 10.2344 68.349 10.4844 67.6406 10.9844C66.9323 11.4844 66.3802 12.1406 65.9844 12.9531V25H63.0938V8.09375H65.8281Z"/>
<path d="M80.0625 16.4062C80.0625 13.7708 80.6719 11.6771 81.8906 10.125C83.1094 8.5625 84.724 7.78125 86.7344 7.78125C88.7969 7.78125 90.4062 8.51042 91.5625 9.96875L91.7031 8.09375H94.3438V24.5938C94.3438 26.7812 93.6927 28.5052 92.3906 29.7656C91.099 31.026 89.3594 31.6562 87.1719 31.6562C85.9531 31.6562 84.7604 31.3958 83.5938 30.875C82.4271 30.3542 81.5365 29.6406 80.9219 28.7344L82.4219 27C83.6615 28.5312 85.1771 29.2969 86.9688 29.2969C88.375 29.2969 89.4688 28.901 90.25 28.1094C91.0417 27.3177 91.4375 26.2031 91.4375 24.7656V23.3125C90.2812 24.6458 88.7031 25.3125 86.7031 25.3125C84.724 25.3125 83.1198 24.5156 81.8906 22.9219C80.6719 21.3281 80.0625 19.1562 80.0625 16.4062ZM82.9688 16.7344C82.9688 18.6406 83.3594 20.1406 84.1406 21.2344C84.9219 22.3177 86.0156 22.8594 87.4219 22.8594C89.2448 22.8594 90.5833 22.0312 91.4375 20.375V12.6562C90.5521 11.0417 89.224 10.2344 87.4531 10.2344C86.0469 10.2344 84.9479 10.7812 84.1562 11.875C83.3646 12.9688 82.9688 14.5885 82.9688 16.7344Z"/>
<path d="M21.1406 52.3594C21.1406 54.5885 20.7656 56.5365 20.0156 58.2031C19.2656 59.8594 18.2031 61.125 16.8281 62C15.4531 62.875 13.849 63.3125 12.0156 63.3125C10.224 63.3125 8.63542 62.875 7.25 62C5.86458 61.1146 4.78646 59.8594 4.01562 58.2344C3.25521 56.599 2.86458 54.7083 2.84375 52.5625V50.9219C2.84375 48.7344 3.22396 46.8021 3.98438 45.125C4.74479 43.4479 5.81771 42.1667 7.20312 41.2812C8.59896 40.3854 10.1927 39.9375 11.9844 39.9375C13.8073 39.9375 15.4115 40.3802 16.7969 41.2656C18.1927 42.1406 19.2656 43.4167 20.0156 45.0938C20.7656 46.7604 21.1406 48.7031 21.1406 50.9219V52.3594ZM18.1562 50.8906C18.1562 48.1927 17.6146 46.125 16.5312 44.6875C15.4479 43.2396 13.9323 42.5156 11.9844 42.5156C10.0885 42.5156 8.59375 43.2396 7.5 44.6875C6.41667 46.125 5.85938 48.125 5.82812 50.6875V52.3594C5.82812 54.974 6.375 57.0312 7.46875 58.5312C8.57292 60.0208 10.0885 60.7656 12.0156 60.7656C13.9531 60.7656 15.4531 60.0625 16.5156 58.6562C17.5781 57.2396 18.125 55.2135 18.1562 52.5781V50.8906Z"/>
<path d="M27.9219 46.0938L28.0156 48.2188C29.3073 46.5938 30.9948 45.7812 33.0781 45.7812C36.651 45.7812 38.4531 47.7969 38.4844 51.8281V63H35.5938V51.8125C35.5833 50.5938 35.3021 49.6927 34.75 49.1094C34.2083 48.526 33.3594 48.2344 32.2031 48.2344C31.2656 48.2344 30.4427 48.4844 29.7344 48.9844C29.026 49.4844 28.474 50.1406 28.0781 50.9531V63H25.1875V46.0938H27.9219Z"/>
</mask>
<path d="M13.1719 2.25H16.1875V18.3594C16.1875 20.5365 15.5312 22.2396 14.2188 23.4688C12.9167 24.6979 11.1771 25.3125 9 25.3125C6.73958 25.3125 4.97917 24.7344 3.71875 23.5781C2.45833 22.4219 1.82812 20.8021 1.82812 18.7188H4.82812C4.82812 20.0208 5.18229 21.0365 5.89062 21.7656C6.60938 22.4948 7.64583 22.8594 9 22.8594C10.2396 22.8594 11.2396 22.4688 12 21.6875C12.7708 20.9062 13.1615 19.8125 13.1719 18.4062V2.25Z" fill="#D62828"/>
<path d="M20.0781 16.3906C20.0781 14.7344 20.401 13.2448 21.0469 11.9219C21.7031 10.599 22.6094 9.57812 23.7656 8.85938C24.9323 8.14062 26.2604 7.78125 27.75 7.78125C30.0521 7.78125 31.9115 8.57812 33.3281 10.1719C34.7552 11.7656 35.4688 13.8854 35.4688 16.5312V16.7344C35.4688 18.3802 35.151 19.8594 34.5156 21.1719C33.8906 22.474 32.9896 23.4896 31.8125 24.2188C30.6458 24.9479 29.3021 25.3125 27.7812 25.3125C25.4896 25.3125 23.6302 24.5156 22.2031 22.9219C20.7865 21.3281 20.0781 19.2188 20.0781 16.5938V16.3906ZM22.9844 16.7344C22.9844 18.6094 23.4167 20.1146 24.2812 21.25C25.1562 22.3854 26.3229 22.9531 27.7812 22.9531C29.25 22.9531 30.4167 22.3802 31.2812 21.2344C32.1458 20.0781 32.5781 18.4635 32.5781 16.3906C32.5781 14.5365 32.1354 13.0365 31.25 11.8906C30.375 10.7344 29.2083 10.1562 27.75 10.1562C26.3229 10.1562 25.1719 10.724 24.2969 11.8594C23.4219 12.9948 22.9844 14.6198 22.9844 16.7344Z" fill="#D62828"/>
<path d="M43.8125 17.1719L42 19.0625V25H39.1094V1H42V15.5156L43.5469 13.6562L48.8125 8.09375H52.3281L45.75 15.1562L53.0938 25H49.7031L43.8125 17.1719Z" fill="#D62828"/>
<path d="M58.4531 25H55.5625V8.09375H58.4531V25ZM55.3281 3.60938C55.3281 3.14062 55.4688 2.74479 55.75 2.42188C56.0417 2.09896 56.4688 1.9375 57.0312 1.9375C57.5938 1.9375 58.0208 2.09896 58.3125 2.42188C58.6042 2.74479 58.75 3.14062 58.75 3.60938C58.75 4.07812 58.6042 4.46875 58.3125 4.78125C58.0208 5.09375 57.5938 5.25 57.0312 5.25C56.4688 5.25 56.0417 5.09375 55.75 4.78125C55.4688 4.46875 55.3281 4.07812 55.3281 3.60938Z" fill="#D62828"/>
<path d="M65.8281 8.09375L65.9219 10.2188C67.2135 8.59375 68.901 7.78125 70.9844 7.78125C74.5573 7.78125 76.3594 9.79688 76.3906 13.8281V25H73.5V13.8125C73.4896 12.5938 73.2083 11.6927 72.6562 11.1094C72.1146 10.526 71.2656 10.2344 70.1094 10.2344C69.1719 10.2344 68.349 10.4844 67.6406 10.9844C66.9323 11.4844 66.3802 12.1406 65.9844 12.9531V25H63.0938V8.09375H65.8281Z" fill="#D62828"/>
<path d="M80.0625 16.4062C80.0625 13.7708 80.6719 11.6771 81.8906 10.125C83.1094 8.5625 84.724 7.78125 86.7344 7.78125C88.7969 7.78125 90.4062 8.51042 91.5625 9.96875L91.7031 8.09375H94.3438V24.5938C94.3438 26.7812 93.6927 28.5052 92.3906 29.7656C91.099 31.026 89.3594 31.6562 87.1719 31.6562C85.9531 31.6562 84.7604 31.3958 83.5938 30.875C82.4271 30.3542 81.5365 29.6406 80.9219 28.7344L82.4219 27C83.6615 28.5312 85.1771 29.2969 86.9688 29.2969C88.375 29.2969 89.4688 28.901 90.25 28.1094C91.0417 27.3177 91.4375 26.2031 91.4375 24.7656V23.3125C90.2812 24.6458 88.7031 25.3125 86.7031 25.3125C84.724 25.3125 83.1198 24.5156 81.8906 22.9219C80.6719 21.3281 80.0625 19.1562 80.0625 16.4062ZM82.9688 16.7344C82.9688 18.6406 83.3594 20.1406 84.1406 21.2344C84.9219 22.3177 86.0156 22.8594 87.4219 22.8594C89.2448 22.8594 90.5833 22.0312 91.4375 20.375V12.6562C90.5521 11.0417 89.224 10.2344 87.4531 10.2344C86.0469 10.2344 84.9479 10.7812 84.1562 11.875C83.3646 12.9688 82.9688 14.5885 82.9688 16.7344Z" fill="#D62828"/>
<path d="M21.1406 52.3594C21.1406 54.5885 20.7656 56.5365 20.0156 58.2031C19.2656 59.8594 18.2031 61.125 16.8281 62C15.4531 62.875 13.849 63.3125 12.0156 63.3125C10.224 63.3125 8.63542 62.875 7.25 62C5.86458 61.1146 4.78646 59.8594 4.01562 58.2344C3.25521 56.599 2.86458 54.7083 2.84375 52.5625V50.9219C2.84375 48.7344 3.22396 46.8021 3.98438 45.125C4.74479 43.4479 5.81771 42.1667 7.20312 41.2812C8.59896 40.3854 10.1927 39.9375 11.9844 39.9375C13.8073 39.9375 15.4115 40.3802 16.7969 41.2656C18.1927 42.1406 19.2656 43.4167 20.0156 45.0938C20.7656 46.7604 21.1406 48.7031 21.1406 50.9219V52.3594ZM18.1562 50.8906C18.1562 48.1927 17.6146 46.125 16.5312 44.6875C15.4479 43.2396 13.9323 42.5156 11.9844 42.5156C10.0885 42.5156 8.59375 43.2396 7.5 44.6875C6.41667 46.125 5.85938 48.125 5.82812 50.6875V52.3594C5.82812 54.974 6.375 57.0312 7.46875 58.5312C8.57292 60.0208 10.0885 60.7656 12.0156 60.7656C13.9531 60.7656 15.4531 60.0625 16.5156 58.6562C17.5781 57.2396 18.125 55.2135 18.1562 52.5781V50.8906Z" fill="#D62828"/>
<path d="M27.9219 46.0938L28.0156 48.2188C29.3073 46.5938 30.9948 45.7812 33.0781 45.7812C36.651 45.7812 38.4531 47.7969 38.4844 51.8281V63H35.5938V51.8125C35.5833 50.5938 35.3021 49.6927 34.75 49.1094C34.2083 48.526 33.3594 48.2344 32.2031 48.2344C31.2656 48.2344 30.4427 48.4844 29.7344 48.9844C29.026 49.4844 28.474 50.1406 28.0781 50.9531V63H25.1875V46.0938H27.9219Z" fill="#D62828"/>
<path d="M13.1719 2.25H16.1875V18.3594C16.1875 20.5365 15.5312 22.2396 14.2188 23.4688C12.9167 24.6979 11.1771 25.3125 9 25.3125C6.73958 25.3125 4.97917 24.7344 3.71875 23.5781C2.45833 22.4219 1.82812 20.8021 1.82812 18.7188H4.82812C4.82812 20.0208 5.18229 21.0365 5.89062 21.7656C6.60938 22.4948 7.64583 22.8594 9 22.8594C10.2396 22.8594 11.2396 22.4688 12 21.6875C12.7708 20.9062 13.1615 19.8125 13.1719 18.4062V2.25Z" stroke="#262626" stroke-width="2" mask="url(#path-1-outside-1)"/>
<path d="M20.0781 16.3906C20.0781 14.7344 20.401 13.2448 21.0469 11.9219C21.7031 10.599 22.6094 9.57812 23.7656 8.85938C24.9323 8.14062 26.2604 7.78125 27.75 7.78125C30.0521 7.78125 31.9115 8.57812 33.3281 10.1719C34.7552 11.7656 35.4688 13.8854 35.4688 16.5312V16.7344C35.4688 18.3802 35.151 19.8594 34.5156 21.1719C33.8906 22.474 32.9896 23.4896 31.8125 24.2188C30.6458 24.9479 29.3021 25.3125 27.7812 25.3125C25.4896 25.3125 23.6302 24.5156 22.2031 22.9219C20.7865 21.3281 20.0781 19.2188 20.0781 16.5938V16.3906ZM22.9844 16.7344C22.9844 18.6094 23.4167 20.1146 24.2812 21.25C25.1562 22.3854 26.3229 22.9531 27.7812 22.9531C29.25 22.9531 30.4167 22.3802 31.2812 21.2344C32.1458 20.0781 32.5781 18.4635 32.5781 16.3906C32.5781 14.5365 32.1354 13.0365 31.25 11.8906C30.375 10.7344 29.2083 10.1562 27.75 10.1562C26.3229 10.1562 25.1719 10.724 24.2969 11.8594C23.4219 12.9948 22.9844 14.6198 22.9844 16.7344Z" stroke="#262626" stroke-width="2" mask="url(#path-1-outside-1)"/>
<path d="M43.8125 17.1719L42 19.0625V25H39.1094V1H42V15.5156L43.5469 13.6562L48.8125 8.09375H52.3281L45.75 15.1562L53.0938 25H49.7031L43.8125 17.1719Z" stroke="#262626" stroke-width="2" mask="url(#path-1-outside-1)"/>
<path d="M58.4531 25H55.5625V8.09375H58.4531V25ZM55.3281 3.60938C55.3281 3.14062 55.4688 2.74479 55.75 2.42188C56.0417 2.09896 56.4688 1.9375 57.0312 1.9375C57.5938 1.9375 58.0208 2.09896 58.3125 2.42188C58.6042 2.74479 58.75 3.14062 58.75 3.60938C58.75 4.07812 58.6042 4.46875 58.3125 4.78125C58.0208 5.09375 57.5938 5.25 57.0312 5.25C56.4688 5.25 56.0417 5.09375 55.75 4.78125C55.4688 4.46875 55.3281 4.07812 55.3281 3.60938Z" stroke="#262626" stroke-width="2" mask="url(#path-1-outside-1)"/>
<path d="M65.8281 8.09375L65.9219 10.2188C67.2135 8.59375 68.901 7.78125 70.9844 7.78125C74.5573 7.78125 76.3594 9.79688 76.3906 13.8281V25H73.5V13.8125C73.4896 12.5938 73.2083 11.6927 72.6562 11.1094C72.1146 10.526 71.2656 10.2344 70.1094 10.2344C69.1719 10.2344 68.349 10.4844 67.6406 10.9844C66.9323 11.4844 66.3802 12.1406 65.9844 12.9531V25H63.0938V8.09375H65.8281Z" stroke="#262626" stroke-width="2" mask="url(#path-1-outside-1)"/>
<path d="M80.0625 16.4062C80.0625 13.7708 80.6719 11.6771 81.8906 10.125C83.1094 8.5625 84.724 7.78125 86.7344 7.78125C88.7969 7.78125 90.4062 8.51042 91.5625 9.96875L91.7031 8.09375H94.3438V24.5938C94.3438 26.7812 93.6927 28.5052 92.3906 29.7656C91.099 31.026 89.3594 31.6562 87.1719 31.6562C85.9531 31.6562 84.7604 31.3958 83.5938 30.875C82.4271 30.3542 81.5365 29.6406 80.9219 28.7344L82.4219 27C83.6615 28.5312 85.1771 29.2969 86.9688 29.2969C88.375 29.2969 89.4688 28.901 90.25 28.1094C91.0417 27.3177 91.4375 26.2031 91.4375 24.7656V23.3125C90.2812 24.6458 88.7031 25.3125 86.7031 25.3125C84.724 25.3125 83.1198 24.5156 81.8906 22.9219C80.6719 21.3281 80.0625 19.1562 80.0625 16.4062ZM82.9688 16.7344C82.9688 18.6406 83.3594 20.1406 84.1406 21.2344C84.9219 22.3177 86.0156 22.8594 87.4219 22.8594C89.2448 22.8594 90.5833 22.0312 91.4375 20.375V12.6562C90.5521 11.0417 89.224 10.2344 87.4531 10.2344C86.0469 10.2344 84.9479 10.7812 84.1562 11.875C83.3646 12.9688 82.9688 14.5885 82.9688 16.7344Z" stroke="#262626" stroke-width="2" mask="url(#path-1-outside-1)"/>
<path d="M21.1406 52.3594C21.1406 54.5885 20.7656 56.5365 20.0156 58.2031C19.2656 59.8594 18.2031 61.125 16.8281 62C15.4531 62.875 13.849 63.3125 12.0156 63.3125C10.224 63.3125 8.63542 62.875 7.25 62C5.86458 61.1146 4.78646 59.8594 4.01562 58.2344C3.25521 56.599 2.86458 54.7083 2.84375 52.5625V50.9219C2.84375 48.7344 3.22396 46.8021 3.98438 45.125C4.74479 43.4479 5.81771 42.1667 7.20312 41.2812C8.59896 40.3854 10.1927 39.9375 11.9844 39.9375C13.8073 39.9375 15.4115 40.3802 16.7969 41.2656C18.1927 42.1406 19.2656 43.4167 20.0156 45.0938C20.7656 46.7604 21.1406 48.7031 21.1406 50.9219V52.3594ZM18.1562 50.8906C18.1562 48.1927 17.6146 46.125 16.5312 44.6875C15.4479 43.2396 13.9323 42.5156 11.9844 42.5156C10.0885 42.5156 8.59375 43.2396 7.5 44.6875C6.41667 46.125 5.85938 48.125 5.82812 50.6875V52.3594C5.82812 54.974 6.375 57.0312 7.46875 58.5312C8.57292 60.0208 10.0885 60.7656 12.0156 60.7656C13.9531 60.7656 15.4531 60.0625 16.5156 58.6562C17.5781 57.2396 18.125 55.2135 18.1562 52.5781V50.8906Z" stroke="#262626" stroke-width="2" mask="url(#path-1-outside-1)"/>
<path d="M27.9219 46.0938L28.0156 48.2188C29.3073 46.5938 30.9948 45.7812 33.0781 45.7812C36.651 45.7812 38.4531 47.7969 38.4844 51.8281V63H35.5938V51.8125C35.5833 50.5938 35.3021 49.6927 34.75 49.1094C34.2083 48.526 33.3594 48.2344 32.2031 48.2344C31.2656 48.2344 30.4427 48.4844 29.7344 48.9844C29.026 49.4844 28.474 50.1406 28.0781 50.9531V63H25.1875V46.0938H27.9219Z" stroke="#262626" stroke-width="2" mask="url(#path-1-outside-1)"/>
</svg>
